<?xml version="1.0" encoding="utf-8"?>
<!-- Generator: Adobe Illustrator 18.0.0, SVG Export Plug-In . SVG Version: 6.00 Build 0)  -->
<!DOCTYPE svg PUBLIC "-//W3C//DTD SVG 1.1//EN" "http://www.w3.org/Graphics/SVG/1.1/DTD/svg11.dtd">
<svg version="1.1" id="Capa_1" xmlns="http://www.w3.org/2000/svg" xmlns:xlink="http://www.w3.org/1999/xlink" x="0px" y="0px"
	 viewBox="0 0 2692.9 976.9" enable-background="new 0 0 2692.9 976.9" xml:space="preserve">
<g>
	<path fill="#FFFFFF" d="M631.3,194.6L589,243.1c15.3,20.6,27.5,43.4,36.6,68.5c12.3,34.2,18.6,70.1,18.6,107.5
		c0,37.5-6.2,73.2-18.6,107.5c-12.3,34.2-30.5,64.1-54.3,90c-23.8,25.8-52.8,46.5-86.9,61.9c-34.1,15.4-72.8,23.2-115.8,23.2
		c-43.6,0-82.5-7.8-116.7-23.2c-34.2-15.4-62.8-36.1-86-61.9c-23.3-25.9-41.1-55.8-53.4-90c-12.4-34.2-18.5-70-18.5-107.5
		c0-37,6.2-72.6,18.5-106.8c12.3-34.2,30.1-64.3,53.4-90.4c23.3-26.1,51.9-46.9,86-62.3c34.1-15.4,73-23.2,116.7-23.2
		c43,0,81.7,7.8,115.8,23.2c17.9,8,34.3,17.7,49.3,28.6l42-46.5c-18.4-13.5-38.6-25.3-60.8-35.3c-42.4-19.2-91.2-28.7-146.4-28.7
		c-55.2,0-103.9,9.5-146.3,28.7c-42.4,19.2-78,44.5-106.9,76.1c-28.9,31.6-50.8,68-65.5,109.2c-14.9,41.1-22.2,83.4-22.2,126.9
		c0,42.9,7.3,84.9,22.2,126.1c14.8,41.2,36.4,77.7,65,109.5c28.6,31.9,64.1,57.5,106.4,76.9c42.4,19.5,91.5,29.1,147.3,29.1
		c55.2,0,104-9.6,146.4-28.7c42.4-19.1,78-44.6,106.9-76.5c28.8-31.9,50.9-68.3,66-109.2c15.2-40.9,22.7-83,22.7-126.5
		c0-43.5-7.5-85.8-22.7-127C674.5,256.2,655.4,223.7,631.3,194.6z"/>
	<polygon fill="#FFFFFF" points="751,233.5 630.9,100.5 510.8,233.5 550.5,267.6 630.9,175.4 714.3,267.6 	"/>
</g>
<path fill="#FFFFFF" stroke="#FFFFFF" stroke-width="1.8123" stroke-miterlimit="10" d="M2218.6,273.3v429.2h-15.2V273.3H2218.6z"/>
<path fill="#FFFFFF" stroke="#FFFFFF" stroke-width="1.8123" stroke-miterlimit="10" d="M2325.7,273.3v418h128.4v11.2h-143.6V273.3
	H2325.7z"/>
<path fill="#FFFFFF" stroke="#FFFFFF" stroke-width="1.8123" stroke-miterlimit="10" d="M2530.4,273.3v418h128.5v11.2h-143.6V273.3
	H2530.4z"/>
<path fill="#FFFFFF" stroke="#FFFFFF" stroke-width="1.8123" stroke-miterlimit="10" d="M1032.7,273.3v11.2H824v205.1h206.3v11.2
	H824V702h-16.3V273.3H1032.7z"/>
<path fill="#FFFFFF" stroke="#FFFFFF" stroke-width="1.8123" stroke-miterlimit="10" d="M1261.5,267.6L1433.4,702h-18.2l-64-167
	l-174.7,0.6L1124.1,702h-17.5l145.8-434.4H1261.5z M1181.9,524.4l164.4-0.6l-89.7-227.6L1181.9,524.4z"/>
<path fill="#FFFFFF" stroke="#FFFFFF" stroke-width="1.8123" stroke-miterlimit="10" d="M1653.9,273.3c21.7,0,40.4,3.4,55.9,10.1
	c15.5,6.7,28.5,15.5,38.8,26.3c10.3,10.8,17.9,23.3,22.7,37.3c4.8,14,7.3,28.5,7.3,43.4c0,13.1-1.8,25.8-5.4,38.1
	c-3.6,12.2-9.2,23.7-16.9,34.2c-7.7,10.5-17.4,19.4-29.4,26.9c-28.7,16.6-53.9,19.1-73.3,18.7c-9.4-0.2-90.4-1.1-96.7-1.5
	L1779.1,702h-19.4l-220.5-194v194h-16.3V273.3H1653.9z M1539.2,496.8h114.7c19.4,0,35.8-3,49.3-8.9c13.5-6,24.7-14,33.6-23.8
	c8.8-9.9,15.3-21.2,19.3-33.9c4.1-12.7,6.1-25.8,6.1-39.2c0-13.9-2.1-27.1-6.4-39.8c-4.3-12.6-10.7-24-19.4-33.9
	c-8.6-9.8-19.9-17.8-33.5-23.8c-13.7-5.9-30.1-9-49-9h-114.7V496.8z"/>
<path fill="#FFFFFF" stroke="#FFFFFF" stroke-width="1.8123" stroke-miterlimit="10" d="M2005.4,273.3c21.8,0,40.5,3.4,56.1,10.1
	c15.5,6.7,28.5,15.5,38.7,26.3c10.3,10.8,17.8,23.3,22.7,37.3c4.8,14,7.2,28.5,7.2,43.4c0,13.1-1.8,25.8-5.4,38.1
	c-3.6,12.2-9.3,23.7-17,34.2c-7.6,10.5-17.4,19.4-29.3,26.9c-28.8,16.6-53.9,19.1-73.3,18.7c-9.4-0.2-90.4-1.1-96.7-1.5L2130.8,702
	h-19.4l-220.6-194v194h-16.3V273.3H2005.4z M1890.8,496.8h114.6c19.5,0,35.9-3,49.4-8.9c13.6-6,24.8-14,33.6-23.8
	c8.9-9.9,15.3-21.2,19.3-33.9c4.1-12.7,6.1-25.8,6.1-39.2c0-13.9-2.2-27.1-6.4-39.8c-4.3-12.6-10.7-24-19.5-33.9
	c-8.7-9.8-19.8-17.8-33.5-23.8c-13.8-5.9-30-9-49.1-9h-114.6V496.8z"/>
<g>
	<g>
		<path fill="#FFFFFF" d="M1250.3,800.4h23.6c22.8,0,24.9,20.5,24.9,25.8c0,9.4-3.6,18-16.3,25.2l24.6,40.2h-11.5l-22.2-38
			c-4.6,0.1-9.1,0.1-13.7,0.3v37.7h-9.5V800.4z M1268.7,845.7c13,0,20.5-6.6,20.5-20c0-12.2-5-17.4-20-17.4h-9.4v37.3H1268.7z"/>
		<path fill="#FFFFFF" d="M1435.3,808.4h-37.9v32.4h27.3v7.9h-27.3v34.9h38.8v8H1388v-91.2h47.3V808.4z"/>
		<path fill="#FFFFFF" d="M1577.4,891.6h-10.3l-8.1-26.9h-27.7l-8.1,26.9h-10.3l32.2-98.8L1577.4,891.6z M1533.6,856.8h23.1
			l-11.6-36.9L1533.6,856.8z"/>
		<path fill="#FFFFFF" d="M1672.8,883.6h39.5v8h-49v-91.2h9.5V883.6z"/>
		<path fill="#FFFFFF" d="M1982,808.4h-37.8v32.4h27.2v7.9h-27.2v34.9h38.7v8h-48.2v-91.2h47.3V808.4z"/>
		<path fill="#FFFFFF" d="M2111.5,816.9c-5.5-5-11.9-10.3-19.8-10.3c-8,0-14.7,5.6-14.7,14c0,4.8,0.9,9.1,13.2,16.6l7.2,4.4
			c16.7,10.3,21.3,15.1,21.3,25.7c0,16.4-10.9,26.1-26.9,26.1c-11.8,0-20.5-5.7-27.6-14.8l7.3-5.8c4.4,7.1,11.5,12.7,20.2,12.7
			c9.6,0,17.4-7.1,17.4-16.9c0-7.3-0.5-9.8-16.6-19.5l-8.2-5c-9-5.3-16.9-11.5-16.9-22.9c0-14.3,10.9-22.6,24.6-22.6
			c9.5,0,18.2,5.1,25.1,11.4L2111.5,816.9z"/>
		<path fill="#FFFFFF" d="M2258.9,808.4h-26v83.2h-9.5v-83.2h-25.4v-8h60.9V808.4z"/>
		<path fill="#FFFFFF" d="M2397.4,891.6h-10.3l-8.1-26.9h-27.7l-8.1,26.9H2333l32.1-98.8L2397.4,891.6z M2353.6,856.8h23.2
			l-11.7-36.9L2353.6,856.8z"/>
		<path fill="#FFFFFF" d="M2532.2,808.4h-26v83.2h-9.5v-83.2h-25.5v-8h60.9V808.4z"/>
		<path fill="#FFFFFF" d="M2665.3,808.4h-37.8v32.4h27.2v7.9h-27.2v34.9h38.8v8H2618v-91.2h47.3V808.4z"/>
	</g>
</g>
</svg>
